<mxfile host="Electron" modified="2024-04-18T18:04:37.623Z" agent="Mozilla/5.0 (Windows NT 10.0; Win64; x64) AppleWebKit/537.36 (KHTML, like Gecko) draw.io/21.7.5 Chrome/114.0.5735.289 Electron/25.8.1 Safari/537.36" etag="hDHY_DkxkIVueYDyHEKl" version="21.7.5" type="device">
  <diagram name="PÃ¡gina-1" id="RStskpvfnRbARWp5v2R_">
    <mxGraphModel dx="720" dy="463" grid="1" gridSize="10" guides="1" tooltips="1" connect="1" arrows="1" fold="1" page="1" pageScale="1" pageWidth="1169" pageHeight="827" math="0" shadow="0">
      <root>
        <mxCell id="0" />
        <mxCell id="1" parent="0" />
        <mxCell id="Ax9prqbgl7QCSC3Ttb6f-51" value="" style="rounded=1;whiteSpace=wrap;html=1;absoluteArcSize=1;arcSize=14;strokeWidth=2;fillColor=#f5f5f5;strokeColor=#666666;fontColor=#333333;" parent="1" vertex="1">
          <mxGeometry x="70" y="96" width="399" height="635" as="geometry" />
        </mxCell>
        <mxCell id="Ax9prqbgl7QCSC3Ttb6f-1" value="" style="rounded=1;whiteSpace=wrap;html=1;absoluteArcSize=1;arcSize=14;strokeWidth=2;fillColor=#f8cecc;strokeColor=#b85450;gradientColor=#FF6666;" parent="1" vertex="1">
          <mxGeometry x="89" y="121" width="360" height="600" as="geometry" />
        </mxCell>
        <mxCell id="Ax9prqbgl7QCSC3Ttb6f-28" value="&lt;font face=&quot;Courier New&quot; style=&quot;font-size: 10px;&quot;&gt;&lt;b&gt;&amp;lt;div id=&quot;head-controls&quot;&amp;gt;&lt;/b&gt;&lt;/font&gt;" style="text;html=1;strokeColor=none;fillColor=none;align=center;verticalAlign=middle;whiteSpace=wrap;rounded=0;" parent="1" vertex="1">
          <mxGeometry x="98" y="123" width="150" height="10" as="geometry" />
        </mxCell>
        <mxCell id="Ax9prqbgl7QCSC3Ttb6f-29" value="&lt;font face=&quot;Courier New&quot; style=&quot;font-size: 10px;&quot;&gt;&amp;lt;pre id=&quot;text1&quot;&amp;gt;&lt;/font&gt;" style="text;html=1;strokeColor=none;fillColor=none;align=center;verticalAlign=middle;whiteSpace=wrap;rounded=0;rotation=-90;" parent="1" vertex="1">
          <mxGeometry x="697.5" y="364.7" width="100" height="10" as="geometry" />
        </mxCell>
        <mxCell id="Ax9prqbgl7QCSC3Ttb6f-30" value="&lt;font face=&quot;Courier New&quot; style=&quot;font-size: 10px;&quot;&gt;&amp;lt;pre id=&quot;text2&quot;&amp;gt;&lt;/font&gt;" style="text;html=1;strokeColor=none;fillColor=none;align=center;verticalAlign=middle;whiteSpace=wrap;rounded=0;rotation=-90;" parent="1" vertex="1">
          <mxGeometry x="907.5" y="365.31" width="100" height="10" as="geometry" />
        </mxCell>
        <mxCell id="Ax9prqbgl7QCSC3Ttb6f-31" value="&lt;font face=&quot;Courier New&quot; style=&quot;font-size: 10px;&quot;&gt;&amp;lt;select id=&quot;records-to-show&quot;&amp;gt;&lt;/font&gt;" style="text;html=1;strokeColor=none;fillColor=none;align=center;verticalAlign=middle;whiteSpace=wrap;rounded=0;rotation=-90;" parent="1" vertex="1">
          <mxGeometry x="760" y="370" width="185" height="10" as="geometry" />
        </mxCell>
        <mxCell id="Ax9prqbgl7QCSC3Ttb6f-32" value="&lt;font face=&quot;Courier New&quot; style=&quot;font-size: 10px;&quot;&gt;&lt;b&gt;&amp;lt;div id=&quot;place-for-list&quot;&amp;gt;&lt;/b&gt;&lt;/font&gt;" style="text;html=1;strokeColor=none;fillColor=none;align=center;verticalAlign=middle;whiteSpace=wrap;rounded=0;" parent="1" vertex="1">
          <mxGeometry x="74" y="101" width="155" height="10" as="geometry" />
        </mxCell>
        <mxCell id="Ax9prqbgl7QCSC3Ttb6f-15" value="" style="rounded=1;whiteSpace=wrap;html=1;absoluteArcSize=1;arcSize=14;strokeWidth=2;fillColor=#dae8fc;strokeColor=#6c8ebf;gradientColor=#66B2FF;" parent="1" vertex="1">
          <mxGeometry x="109" y="161" width="320" height="550" as="geometry" />
        </mxCell>
        <mxCell id="Ax9prqbgl7QCSC3Ttb6f-16" value="" style="rounded=1;whiteSpace=wrap;html=1;absoluteArcSize=1;arcSize=14;strokeWidth=2;fillColor=#d5e8d4;strokeColor=#82b366;gradientColor=#66FFB3;" parent="1" vertex="1">
          <mxGeometry x="124" y="181" width="285" height="520" as="geometry" />
        </mxCell>
        <mxCell id="Ax9prqbgl7QCSC3Ttb6f-17" value="" style="rounded=1;whiteSpace=wrap;html=1;absoluteArcSize=1;arcSize=14;strokeWidth=2;fillColor=#fff2cc;strokeColor=#d6b656;gradientColor=#FFCE9F;" parent="1" vertex="1">
          <mxGeometry x="134" y="201" width="265" height="50" as="geometry" />
        </mxCell>
        <mxCell id="Ax9prqbgl7QCSC3Ttb6f-25" value="&lt;font face=&quot;Courier New&quot; style=&quot;font-size: 10px;&quot;&gt;&amp;lt;div id=&quot;hc-nav-buttons&quot;&amp;gt;&lt;/font&gt;" style="text;html=1;strokeColor=none;fillColor=none;align=center;verticalAlign=middle;whiteSpace=wrap;rounded=0;" parent="1" vertex="1">
          <mxGeometry x="120" y="163" width="157" height="10" as="geometry" />
        </mxCell>
        <mxCell id="Ax9prqbgl7QCSC3Ttb6f-26" value="&lt;font face=&quot;Courier New&quot; style=&quot;font-size: 10px;&quot;&gt;&amp;lt;ul class=&quot;pagination-keys&quot;&amp;gt;&lt;/font&gt;" style="text;html=1;strokeColor=none;fillColor=none;align=center;verticalAlign=middle;whiteSpace=wrap;rounded=0;" parent="1" vertex="1">
          <mxGeometry x="128" y="183" width="180" height="10" as="geometry" />
        </mxCell>
        <mxCell id="Ax9prqbgl7QCSC3Ttb6f-6" value="&lt;font face=&quot;Courier New&quot; style=&quot;font-size: 10px;&quot;&gt;&amp;lt;li class=&quot;layer-down&quot;&amp;gt;&lt;/font&gt;" style="text;html=1;strokeColor=none;fillColor=none;align=center;verticalAlign=middle;whiteSpace=wrap;rounded=0;rotation=0;" parent="1" vertex="1">
          <mxGeometry x="135" y="202" width="150" height="10" as="geometry" />
        </mxCell>
        <mxCell id="Ax9prqbgl7QCSC3Ttb6f-33" value="&amp;lt;&amp;lt;&amp;nbsp;&amp;nbsp;" style="rounded=1;whiteSpace=wrap;html=1;absoluteArcSize=1;arcSize=14;strokeWidth=2;fillColor=#fad9d5;strokeColor=#ae4132;align=right;" parent="1" vertex="1">
          <mxGeometry x="164" y="217" width="225" height="32" as="geometry" />
        </mxCell>
        <mxCell id="Ax9prqbgl7QCSC3Ttb6f-34" value="&lt;font face=&quot;Courier New&quot; style=&quot;font-size: 10px;&quot;&gt;&amp;lt;a class=&quot;pagelink&quot;&amp;gt;&lt;/font&gt;" style="text;html=1;strokeColor=none;fillColor=none;align=center;verticalAlign=middle;whiteSpace=wrap;rounded=0;rotation=0;" parent="1" vertex="1">
          <mxGeometry x="164" y="218" width="130" height="10" as="geometry" />
        </mxCell>
        <mxCell id="Ax9prqbgl7QCSC3Ttb6f-35" value="" style="rounded=1;whiteSpace=wrap;html=1;absoluteArcSize=1;arcSize=14;strokeWidth=2;fillColor=#fff2cc;strokeColor=#d6b656;gradientColor=#FFCE9F;" parent="1" vertex="1">
          <mxGeometry x="134" y="251" width="265" height="50" as="geometry" />
        </mxCell>
        <mxCell id="Ax9prqbgl7QCSC3Ttb6f-36" value="&amp;lt;&amp;nbsp;&amp;nbsp;" style="rounded=1;whiteSpace=wrap;html=1;absoluteArcSize=1;arcSize=14;strokeWidth=2;fillColor=#fad9d5;strokeColor=#ae4132;align=right;" parent="1" vertex="1">
          <mxGeometry x="164" y="267" width="225" height="32" as="geometry" />
        </mxCell>
        <mxCell id="Ax9prqbgl7QCSC3Ttb6f-37" value="&lt;font face=&quot;Courier New&quot; style=&quot;font-size: 10px;&quot;&gt;&amp;lt;a class=&quot;pagelink&quot;&amp;gt;&lt;/font&gt;" style="text;html=1;strokeColor=none;fillColor=none;align=center;verticalAlign=middle;whiteSpace=wrap;rounded=0;rotation=0;" parent="1" vertex="1">
          <mxGeometry x="163" y="268" width="132" height="10" as="geometry" />
        </mxCell>
        <mxCell id="Ax9prqbgl7QCSC3Ttb6f-38" value="&lt;font face=&quot;Courier New&quot; style=&quot;font-size: 10px;&quot;&gt;&amp;lt;li class=&quot;page-down&quot;&amp;gt;&lt;/font&gt;" style="text;html=1;strokeColor=none;fillColor=none;align=center;verticalAlign=middle;whiteSpace=wrap;rounded=0;rotation=0;" parent="1" vertex="1">
          <mxGeometry x="139.5" y="252" width="134.5" height="10" as="geometry" />
        </mxCell>
        <mxCell id="Ax9prqbgl7QCSC3Ttb6f-42" value="" style="rounded=1;whiteSpace=wrap;html=1;absoluteArcSize=1;arcSize=14;strokeWidth=2;fillColor=#fff2cc;strokeColor=#d6b656;gradientColor=#FFCE9F;" parent="1" vertex="1">
          <mxGeometry x="134" y="301" width="265" height="50" as="geometry" />
        </mxCell>
        <mxCell id="Ax9prqbgl7QCSC3Ttb6f-45" value="1&amp;nbsp;&amp;nbsp;" style="rounded=1;whiteSpace=wrap;html=1;absoluteArcSize=1;arcSize=14;strokeWidth=2;fillColor=#fad9d5;strokeColor=#ae4132;align=right;" parent="1" vertex="1">
          <mxGeometry x="164" y="317" width="225" height="32" as="geometry" />
        </mxCell>
        <mxCell id="Ax9prqbgl7QCSC3Ttb6f-46" value="&lt;font face=&quot;Courier New&quot; style=&quot;font-size: 10px;&quot;&gt;&amp;lt;a class=&quot;pagelink id=1&quot;&amp;gt;&lt;/font&gt;" style="text;html=1;strokeColor=none;fillColor=none;align=center;verticalAlign=middle;whiteSpace=wrap;rounded=0;rotation=0;" parent="1" vertex="1">
          <mxGeometry x="162" y="320" width="162" height="10" as="geometry" />
        </mxCell>
        <mxCell id="Ax9prqbgl7QCSC3Ttb6f-47" value="&lt;font face=&quot;Courier New&quot; style=&quot;font-size: 10px;&quot;&gt;&amp;lt;li class=&quot;pagei&quot;&amp;gt;&lt;/font&gt;" style="text;html=1;strokeColor=none;fillColor=none;align=center;verticalAlign=middle;whiteSpace=wrap;rounded=0;rotation=0;" parent="1" vertex="1">
          <mxGeometry x="135" y="302" width="119.5" height="10" as="geometry" />
        </mxCell>
        <mxCell id="Ax9prqbgl7QCSC3Ttb6f-52" value="" style="group;verticalAlign=middle;fillColor=#fff2cc;strokeColor=#d6b656;rounded=1;arcSize=14;strokeWidth=2;gradientColor=#FFCE9F;" parent="1" vertex="1" connectable="0">
          <mxGeometry x="134" y="351" width="265" height="50" as="geometry" />
        </mxCell>
        <mxCell id="Ax9prqbgl7QCSC3Ttb6f-43" value="" style="rounded=1;whiteSpace=wrap;html=1;absoluteArcSize=1;arcSize=14;strokeWidth=2;fillColor=#fff2cc;strokeColor=#d6b656;gradientColor=#FFCE9F;" parent="Ax9prqbgl7QCSC3Ttb6f-52" vertex="1">
          <mxGeometry width="265" height="50" as="geometry" />
        </mxCell>
        <mxCell id="Ax9prqbgl7QCSC3Ttb6f-48" value="2&amp;nbsp;&amp;nbsp;" style="rounded=1;whiteSpace=wrap;html=1;absoluteArcSize=1;arcSize=14;strokeWidth=2;fillColor=#fad9d5;strokeColor=#ae4132;align=right;" parent="Ax9prqbgl7QCSC3Ttb6f-52" vertex="1">
          <mxGeometry x="30" y="16" width="225" height="32" as="geometry" />
        </mxCell>
        <mxCell id="Ax9prqbgl7QCSC3Ttb6f-49" value="&lt;font face=&quot;Courier New&quot; style=&quot;font-size: 10px;&quot;&gt;&amp;lt;a class=&quot;pagelink id=2&quot;&amp;gt;&lt;/font&gt;" style="text;html=1;strokeColor=none;fillColor=none;align=center;verticalAlign=middle;whiteSpace=wrap;rounded=0;rotation=0;" parent="Ax9prqbgl7QCSC3Ttb6f-52" vertex="1">
          <mxGeometry x="28.5" y="18" width="162" height="10" as="geometry" />
        </mxCell>
        <mxCell id="Ax9prqbgl7QCSC3Ttb6f-50" value="&lt;font face=&quot;Courier New&quot; style=&quot;font-size: 10px;&quot;&gt;&amp;lt;li class=&quot;pagei&quot;&amp;gt;&lt;/font&gt;" style="text;html=1;strokeColor=none;fillColor=none;align=center;verticalAlign=middle;whiteSpace=wrap;rounded=0;rotation=0;" parent="Ax9prqbgl7QCSC3Ttb6f-52" vertex="1">
          <mxGeometry x="1" y="2" width="119.5" height="10" as="geometry" />
        </mxCell>
        <mxCell id="Ax9prqbgl7QCSC3Ttb6f-53" value="" style="group;verticalAlign=middle;fillColor=#fff2cc;strokeColor=#d6b656;rounded=1;arcSize=14;strokeWidth=2;gradientColor=#FFCE9F;container=0;" parent="1" vertex="1" connectable="0">
          <mxGeometry x="134" y="401" width="265" height="50" as="geometry" />
        </mxCell>
        <mxCell id="Ax9prqbgl7QCSC3Ttb6f-58" value="" style="group;verticalAlign=middle;fillColor=#fff2cc;strokeColor=#d6b656;gradientColor=#FFCE9F;rounded=1;arcSize=14;strokeWidth=2;container=0;" parent="1" vertex="1" connectable="0">
          <mxGeometry x="136" y="541" width="265" height="50" as="geometry" />
        </mxCell>
        <mxCell id="Ax9prqbgl7QCSC3Ttb6f-63" value="" style="rounded=1;whiteSpace=wrap;html=1;absoluteArcSize=1;arcSize=14;strokeWidth=2;fillColor=#fff2cc;strokeColor=#d6b656;gradientColor=#FFCE9F;" parent="1" vertex="1">
          <mxGeometry x="136.5" y="591" width="265" height="50" as="geometry" />
        </mxCell>
        <mxCell id="Ax9prqbgl7QCSC3Ttb6f-64" value="&lt;font face=&quot;Courier New&quot; style=&quot;font-size: 10px;&quot;&gt;&amp;lt;li class=&quot;page-up&quot;&amp;gt;&lt;/font&gt;" style="text;html=1;strokeColor=none;fillColor=none;align=center;verticalAlign=middle;whiteSpace=wrap;rounded=0;rotation=0;" parent="1" vertex="1">
          <mxGeometry x="137.5" y="592" width="131.5" height="10" as="geometry" />
        </mxCell>
        <mxCell id="Ax9prqbgl7QCSC3Ttb6f-65" value="&amp;gt;&amp;nbsp;&amp;nbsp;" style="rounded=1;whiteSpace=wrap;html=1;absoluteArcSize=1;arcSize=14;strokeWidth=2;fillColor=#fad9d5;strokeColor=#ae4132;align=right;" parent="1" vertex="1">
          <mxGeometry x="166.5" y="607" width="225" height="32" as="geometry" />
        </mxCell>
        <mxCell id="Ax9prqbgl7QCSC3Ttb6f-66" value="&lt;font face=&quot;Courier New&quot; style=&quot;font-size: 10px;&quot;&gt;&amp;lt;a class=&quot;pagelink&quot;&amp;gt;&lt;/font&gt;" style="text;html=1;strokeColor=none;fillColor=none;align=center;verticalAlign=middle;whiteSpace=wrap;rounded=0;rotation=0;" parent="1" vertex="1">
          <mxGeometry x="166.5" y="608" width="130" height="10" as="geometry" />
        </mxCell>
        <mxCell id="Ax9prqbgl7QCSC3Ttb6f-67" value="" style="rounded=1;whiteSpace=wrap;html=1;absoluteArcSize=1;arcSize=14;strokeWidth=2;fillColor=#fff2cc;strokeColor=#d6b656;gradientColor=#FFCE9F;" parent="1" vertex="1">
          <mxGeometry x="136.5" y="641" width="265" height="50" as="geometry" />
        </mxCell>
        <mxCell id="Ax9prqbgl7QCSC3Ttb6f-68" value="&amp;gt;&amp;gt;&amp;nbsp;&amp;nbsp;" style="rounded=1;whiteSpace=wrap;html=1;absoluteArcSize=1;arcSize=14;strokeWidth=2;fillColor=#fad9d5;strokeColor=#ae4132;align=right;" parent="1" vertex="1">
          <mxGeometry x="166.5" y="657" width="225" height="32" as="geometry" />
        </mxCell>
        <mxCell id="Ax9prqbgl7QCSC3Ttb6f-69" value="&lt;font face=&quot;Courier New&quot; style=&quot;font-size: 10px;&quot;&gt;&amp;lt;a class=&quot;pagelink&quot;&amp;gt;&lt;/font&gt;" style="text;html=1;strokeColor=none;fillColor=none;align=center;verticalAlign=middle;whiteSpace=wrap;rounded=0;rotation=0;" parent="1" vertex="1">
          <mxGeometry x="165.5" y="658" width="132" height="10" as="geometry" />
        </mxCell>
        <mxCell id="Ax9prqbgl7QCSC3Ttb6f-70" value="&lt;font face=&quot;Courier New&quot; style=&quot;font-size: 10px;&quot;&gt;&amp;lt;li class=&quot;layer-up&quot;&amp;gt;&lt;/font&gt;" style="text;html=1;strokeColor=none;fillColor=none;align=center;verticalAlign=middle;whiteSpace=wrap;rounded=0;rotation=0;" parent="1" vertex="1">
          <mxGeometry x="141" y="642" width="137" height="10" as="geometry" />
        </mxCell>
        <mxCell id="Ax9prqbgl7QCSC3Ttb6f-72" value="" style="endArrow=none;dashed=1;html=1;dashPattern=1 3;strokeWidth=2;rounded=0;fillColor=#f5f5f5;strokeColor=#666666;" parent="1" edge="1">
          <mxGeometry width="50" height="50" relative="1" as="geometry">
            <mxPoint x="266.05" y="527" as="sourcePoint" />
            <mxPoint x="266.05" y="467" as="targetPoint" />
          </mxGeometry>
        </mxCell>
        <mxCell id="Ax9prqbgl7QCSC3Ttb6f-54" value="" style="rounded=1;whiteSpace=wrap;html=1;absoluteArcSize=1;arcSize=14;strokeWidth=2;fillColor=#fff2cc;strokeColor=#d6b656;container=0;gradientColor=#FFCE9F;" parent="1" vertex="1">
          <mxGeometry x="134" y="401" width="265" height="50" as="geometry" />
        </mxCell>
        <mxCell id="Ax9prqbgl7QCSC3Ttb6f-55" value="3&amp;nbsp;&amp;nbsp;" style="rounded=1;whiteSpace=wrap;html=1;absoluteArcSize=1;arcSize=14;strokeWidth=2;fillColor=#fad9d5;strokeColor=#ae4132;align=right;" parent="1" vertex="1">
          <mxGeometry x="164" y="417" width="225" height="32" as="geometry" />
        </mxCell>
        <mxCell id="Ax9prqbgl7QCSC3Ttb6f-56" value="&lt;font face=&quot;Courier New&quot; style=&quot;font-size: 10px;&quot;&gt;&amp;lt;a class=&quot;pagelink id=3&quot;&amp;gt;&lt;/font&gt;" style="text;html=1;strokeColor=none;fillColor=none;align=center;verticalAlign=middle;whiteSpace=wrap;rounded=0;rotation=0;" parent="1" vertex="1">
          <mxGeometry x="162.5" y="419" width="162" height="10" as="geometry" />
        </mxCell>
        <mxCell id="Ax9prqbgl7QCSC3Ttb6f-57" value="&lt;font face=&quot;Courier New&quot; style=&quot;font-size: 10px;&quot;&gt;&amp;lt;li class=&quot;pagei&quot;&amp;gt;&lt;/font&gt;" style="text;html=1;strokeColor=none;fillColor=none;align=center;verticalAlign=middle;whiteSpace=wrap;rounded=0;rotation=0;" parent="1" vertex="1">
          <mxGeometry x="135" y="403" width="119.5" height="10" as="geometry" />
        </mxCell>
        <mxCell id="Ax9prqbgl7QCSC3Ttb6f-59" value="" style="rounded=1;whiteSpace=wrap;html=1;absoluteArcSize=1;arcSize=14;strokeWidth=2;fillColor=#fff2cc;strokeColor=#d6b656;gradientColor=#FFCE9F;" parent="1" vertex="1">
          <mxGeometry x="136" y="541" width="265" height="50" as="geometry" />
        </mxCell>
        <mxCell id="Ax9prqbgl7QCSC3Ttb6f-60" value="6&amp;nbsp;&amp;nbsp;" style="rounded=1;whiteSpace=wrap;html=1;absoluteArcSize=1;arcSize=14;strokeWidth=2;fillColor=#fad9d5;strokeColor=#ae4132;align=right;" parent="1" vertex="1">
          <mxGeometry x="166" y="557" width="225" height="32" as="geometry" />
        </mxCell>
        <mxCell id="Ax9prqbgl7QCSC3Ttb6f-61" value="&lt;font face=&quot;Courier New&quot; style=&quot;font-size: 10px;&quot;&gt;&amp;lt;a class=&quot;pagelink id=6&quot;&amp;gt;&lt;/font&gt;" style="text;html=1;strokeColor=none;fillColor=none;align=center;verticalAlign=middle;whiteSpace=wrap;rounded=0;rotation=0;" parent="1" vertex="1">
          <mxGeometry x="164.5" y="559" width="162" height="10" as="geometry" />
        </mxCell>
        <mxCell id="Ax9prqbgl7QCSC3Ttb6f-62" value="&lt;font face=&quot;Courier New&quot; style=&quot;font-size: 10px;&quot;&gt;&amp;lt;li class=&quot;pagei&quot;&amp;gt;&lt;/font&gt;" style="text;html=1;strokeColor=none;fillColor=none;align=center;verticalAlign=middle;whiteSpace=wrap;rounded=0;rotation=0;" parent="1" vertex="1">
          <mxGeometry x="137" y="543" width="119.5" height="10" as="geometry" />
        </mxCell>
      </root>
    </mxGraphModel>
  </diagram>
</mxfile>
